Patient4_TMGait_0pt4_03_left_17_EMG.mot
version=1
nRows=30
nColumns=33
inDegrees=no
endheader
time	1LAddLong	2LGlutMax	3LGlutMed	4LIliopsoas	5LSemiMemb	6LBicFemLong	7LRecFem	8LVastMed	9LVastLat	10LGasMed	11LTibAnt	12lTibPost	13LPeroneusLong	14LSol	15LExtDigLong	16LFlexDigLong	17RAddLong	18RGlutMax	19RGlutMed	20RIliopsoas	21RSemiMemb	22RBicFemLong	23RRecFem	24RVastMed	25RVastLat	26RGasMed	27RTibAnt	28RTibPost	29RPeroneusLong	30RSol	31RExtDigLong	32RFlexDigLong
22.587	0.009308	-0.064392	-0.084229	0.013275	-0.021667	-0.22354	-0.15015	0.012512	0.14023	0.11917	-0.002899	0.005646	0.17929	-0.011749	0.016022	-0.017242	-0.002899	-0.31677	-0.14114	0.033875	0.005493	0.072021	0.39475	-0.067139	0.012207	0.00412	0.005493	-0.006561	-0.031891	0.087433	-0.003967	-0.012817
22.588	-0.010223	-0.018463	-0.081177	-0.001221	-0.042725	-0.014343	-0.13779	0.027771	0.10346	0.15198	0.001678	-0.004425	0.51743	-0.082092	0.004425	-0.015411	-0.032959	-0.31784	-0.079956	-0.024414	-0.036316	0.07019	0.44174	-0.10895	-0.009766	0.008087	0.024719	-0.007782	-0.10986	0.020752	-0.000458	-0.018768
22.589	-0.011292	0.004425	-0.020142	0.00351	-0.047302	0.023651	-0.19257	0.02243	0.085602	0.15533	0.030365	0.00061	0.61798	-0.05722	0.028076	-0.024261	-0.086823	-0.35889	-0.017548	-0.04425	-0.053711	0.015106	0.38452	-0.089264	0.000305	0.005646	0.009155	-0.006409	-0.29617	-0.009308	0	-0.024567
22.59	-0.02182	0.011139	0.018005	0.01297	-0.026093	0.048828	-0.26093	0.013885	0.1062	0.15213	0.037231	0.002136	0.30426	0.11429	0.12009	-0.0177	-0.10834	-0.31754	-0.036621	-0.016022	-0.059204	0.003662	0.3093	-0.053558	0.013275	-0.010223	0.008545	-0.011597	-0.1915	-0.11154	0.00061	-0.018463
22.591	-0.02594	0.017548	0.01358	0.007935	-0.011749	-0.031891	-0.3363	0.006104	0.14786	0.10819	0.024567	-0.001373	-0.2034	0.098572	0.062561	0.031586	-0.10437	-0.40314	-0.043488	0.058899	-0.06012	0.001068	0.33173	-0.05661	0.011749	0.002899	0.014191	-0.011139	-0.11353	-0.168	-0.002899	-0.011444
22.592	-0.025787	0.04837	0.069122	-0.001678	-0.038605	-0.1207	-0.52902	0.007172	0.13306	0.010223	-0.041809	0.000153	0.089722	-0.040741	0.012512	0.013733	0.004272	-0.41214	0.070648	0.065765	-0.052338	-0.00412	0.35141	-0.096436	0.011292	0.006866	0.027161	-0.016479	-0.13992	-0.1506	-0.000305	-0.00885
22.593	-0.034485	0.073395	0.074768	-0.013885	-0.071869	-0.072784	-0.58258	0.000305	0.05188	-0.012054	-0.078735	-0.002747	-0.071259	-0.053101	0.004883	-0.007019	0.10696	-0.42862	0.14862	0.034027	-0.045624	-0.019379	0.29083	-0.057983	0.000763	0.010834	0.005646	-0.028229	-0.04837	-0.089111	-0.001831	-0.012665
22.594	-0.024567	0.044403	0.02121	-0.022278	-0.11368	-0.056458	-0.56763	0.010986	-0.087433	-0.011139	-0.034943	-0.00412	0.20416	-0.11398	-0.16388	-0.017548	0.15137	-0.45914	0.1474	-0.023804	-0.038757	-0.005341	0.30701	-0.011597	0.021362	0	-0.020294	-0.02594	0.007324	-0.021515	-0.001678	-0.003662
22.595	-0.009308	0.11475	0.019073	-0.033875	-0.12268	-0.021667	-0.62805	0.018768	-0.13062	-0.002747	-0.039215	-0.006561	0.067139	0.0177	-0.12802	-0.019073	0.18066	-0.45898	0.12146	0.000916	-0.017242	-0.02655	0.30502	0.022888	0.010681	-0.000153	-0.020142	0.000153	-0.042877	-0.021515	-0.006409	-0.005951
22.596	0.012207	0.1442	0.029297	-0.028381	-0.054779	-0.002136	-0.513	0.006104	-0.062256	0.040131	0.004272	-0.00351	-0.26245	-0.033875	-0.17868	-0.018616	0.15045	-0.44357	0.020447	0.016632	0.007935	-0.039215	0.25772	0.033112	0.014954	0.007019	-0.007172	0.011444	-0.29907	-0.15411	-0.002289	-0.004425
22.597	0.033722	0.12039	-0.039978	0.007629	-0.034332	0.002441	-0.47867	-0.010834	0.031738	0.037842	0.01297	-0.003815	-0.22064	-0.093384	-0.22858	-0.029144	0.15198	-0.42252	-0.31326	-0.032349	0.031128	-0.027771	0.26993	0.058136	0.007782	0.002441	0.008087	-0.036316	-0.94482	-0.47943	0.001068	-0.007019
22.598	0.023804	0.15335	0.023193	0.013275	-0.002136	-0.19684	-0.42526	-0.02121	0.05188	0.026245	0.022888	-0.004578	-0.34683	-0.092773	-0.14328	-0.015411	0.10208	-0.41168	-0.27969	-0.068359	0.019073	-0.045013	0.30685	0.03067	0.019379	0.011749	0.005798	-0.094604	-0.79819	-0.58487	-0.00473	-0.00946
22.599	0.015717	0.18433	0.003357	0.032654	-0.012665	-0.51178	-0.27405	-0.009003	0.090179	0.010681	0.033417	-0.002594	-0.3305	-0.006561	0.049744	-0.020599	0.058899	-0.39505	-0.029907	-0.096436	-0.00061	-0.021667	0.30456	0.007477	-0.006256	0.015411	0.010681	-0.086365	-0.098572	-0.26291	-0.003052	-0.009155
22.6	0.00824	0.17166	0.084686	0.020294	-0.034332	-0.19501	-0.22934	0.006714	0.14084	-0.022278	-0.028839	0.000458	-0.28305	0.041199	0.084534	-0.007782	0.008698	-0.3688	0.13412	-0.11078	-0.016174	-0.023956	0.35294	0.015411	-0.02121	0.014038	0.009613	0.12894	0.35858	0.22751	-0.007324	-0.001831
22.601	0.000458	0.17166	0.053558	0.004883	-0.10544	0.015869	-0.25803	0.013885	0.16068	-0.010986	-0.072784	0.005341	-0.2446	-0.063324	0.09552	-0.008087	-0.034485	-0.35675	0.093536	-0.08606	-0.027771	0.014496	0.30411	0.009918	-0.006409	0.016174	-0.046082	0.11749	0.728	0.049744	-0.00351	-0.003357
22.602	0.004425	0.17807	0.11505	-0.002136	-0.12314	0.14328	-0.32059	0.013885	0.12329	-0.019379	-0.020142	0.001526	0.13977	-0.008545	0.20538	-0.018768	-0.019684	-0.34027	-0.028381	-0.034637	-0.029907	0.047913	0.30487	0.009003	-0.02182	0.008545	-0.032654	0.038147	0.53131	0.029602	-0.003052	-0.003204
22.603	0.020294	0.17288	0.067444	-0.013428	-0.08667	0.22858	-0.39932	0.003967	0.10605	0.041199	-0.00412	0.002747	-0.13596	-0.1413	0.11627	-0.015564	-0.032043	-0.31754	-0.11337	-0.050964	-0.044861	0.018158	0.35278	0.00351	-0.026703	0.001831	-0.040283	-0.000763	0.021973	-0.48386	-0.001526	-0.006866
22.604	0.006409	0.18387	0.016022	0.007019	0.005646	0.20767	-0.35461	-0.024109	0.066986	0.039063	0.015869	0.005188	0.56961	-0.075684	0.084991	-0.01358	-0.033417	-0.24338	-0.000458	-0.024719	-0.04303	0.007629	0.30579	0.018921	-0.024719	0.000153	-0.063934	-0.010834	-0.027924	-0.29419	-0.003357	-0.000305
22.605	0.004578	0.15839	-0.086365	-0.002289	0.079041	0.20828	-0.35446	-0.015106	0.017548	-0.016632	-0.011292	0.013275	1.0451	0.029907	0.1564	-0.005493	-0.010376	-0.22492	-0.010986	0.010376	-0.041962	0.006256	0.30502	0.018921	-0.009155	-0.02533	-0.06073	-0.038452	0.38345	0.23712	-0.003662	-0.010681
22.606	-0.004883	0.18509	-0.16785	0.010071	-0.006256	0.13718	-0.26977	-0.007019	0.077209	0.008392	0.03067	0.009918	0.040283	-0.068359	0.11597	-0.027466	0.007935	-0.22217	0.029144	-0.063629	-0.040283	-0.012665	0.28534	0.016479	-0.016174	-0.018463	-0.037537	-0.46249	0.61905	0.16602	-0.001678	-0.010834
22.607	-0.013733	0.15961	0.011444	0.004883	-0.066986	-0.048676	-0.26855	-0.007019	0.16907	0.12405	0.084991	0.00412	-0.49332	-0.1178	0.029449	-0.009918	0.002747	-0.22263	0.14511	-0.028381	-0.02655	-0.009155	0.27145	0.011902	-0.007782	-0.045013	0.021515	-0.19775	0.43381	-0.1683	-0.000305	-0.019379
22.608	-0.009918	0.10315	0.13641	0.021057	-0.05249	-0.016327	-0.25879	-0.007629	0.11765	-0.01297	-0.004272	0.008698	0.4306	0.19531	0.14252	-0.005798	0.010986	-0.20279	0.12604	0.19058	-0.032043	-0.005493	0.18295	0.038147	-0.011749	-0.036316	0.034027	0.39627	0.10803	-0.09903	0.00061	-0.020447
22.609	-0.010071	0.13092	0.046997	0.023804	-0.039978	-0.12009	-0.19577	-0.005798	0.064087	-0.0737	-0.16068	0.002289	1.2306	0.27695	0.009613	-0.001678	0.042267	-0.16815	0.11704	0.15091	-0.030823	-0.016479	0.16693	0.014343	-0.00473	-0.014801	0.011444	0.10101	0.057831	0.11826	-0.002289	-0.01358
22.61	0.006866	0.068512	0.026093	-0.018616	0.096893	-0.25971	-0.17868	-0.019531	0.02121	-0.086365	-0.10956	0.002747	0.28534	0.072632	-0.072021	-0.005035	0.050659	-0.12955	0.10773	-0.096436	-0.03891	-0.02243	0.12482	0.010529	-0.019073	0.022125	0.009918	0.0737	0.17868	0.26062	-0.005798	-0.004578
22.611	0.002441	0.085144	0.12817	-0.037537	0.15411	-0.15472	-0.1207	-0.016479	-0.054016	-0.044403	-0.030365	0.006409	-1.1365	0.020752	-0.11337	0.004272	0.0177	-0.029755	0.13428	-0.18188	-0.04425	-0.031281	0.087128	-0.044861	-0.015411	0.006714	-0.010681	0.046539	0.30685	0.61981	-0.000763	0.002289
22.612	0.011292	0.097046	0.13214	-0.028076	0.12177	0.075836	-0.11932	-0.021973	-0.10437	-0.059967	-0.01236	0.005188	-0.26245	-0.089111	-0.22751	0.005951	0.02121	0.063324	0.22736	-0.097961	-0.035858	-0.028992	0.13748	-0.034027	-0.016479	0.001526	0.001221	-0.020447	0.26321	-0.091095	-0.002136	0.000458
22.613	0.00824	0.051117	0.057526	-0.013885	0.063171	0.21515	-0.076447	-0.022888	-0.07843	-0.039825	-0.019226	0.00473	-0.44937	-0.20035	-0.20783	-0.000153	0.019073	0.091095	0.14267	0.1857	-0.047607	-0.029144	0.1474	-0.11078	-0.053558	-0.012054	0.011749	-0.21988	0.31464	-0.74143	0.000458	-0.001526
22.614	0.027618	-0.062561	0.000763	-0.003662	0.001221	0.29083	-0.11047	-0.019379	-0.014954	0.041046	-0.028534	-0.003357	-0.48645	-0.27023	-0.15442	0.008392	0.024261	0.20096	0.15106	0.24033	-0.066833	-0.033722	0.11429	-0.086365	-0.037689	0.000305	0.016937	-0.076752	0.23071	-0.87204	-0.000763	-0.007019
22.615	0.038147	-0.088043	-0.000916	0.008698	-0.007629	0.23438	-0.13534	-0.005493	0.022583	-0.000305	-0.013885	0.00061	-0.31128	-0.22553	-0.008545	0.006714	0.006561	0.23895	-0.032501	0.092621	-0.066223	-0.032196	0.13901	-0.055237	-0.021973	0.004883	0.046692	0.29419	-0.23605	-0.085144	0.001526	-0.004272
22.616	0.029755	-0.097656	0.053558	-0.015106	-0.011139	0.14938	-0.11673	0.01236	0.046387	0.011444	-0.015717	-0.001526	-0.23697	-0.30701	0.027161	0.00061	-0.014801	0.30838	-0.11765	0.00061	-0.076447	-0.026703	0.13534	-0.065155	-0.020752	0.00946	0.06134	0.11673	-0.44052	0.57098	-0.005188	0
